<svg data-v-423bf9ae="" xmlns="http://www.w3.org/2000/svg" viewBox="0 0 375.78645404244276 60" class="font"><!----><!----><!----><g data-v-423bf9ae="" id="3899fef7-fd88-429b-99fd-f795ecc71215" fill="black" transform="matrix(5.71973320392212,0,0,5.71973320392212,-3.9466190198640447,-18.81792202271327)"><path d="M5.31 3.72C2.59 3.72 0.69 5.75 0.69 8.79C0.69 11.73 2.38 13.78 5.14 13.78C7.66 13.78 9.07 12.33 9.27 10.44L9.28 10.30L7.76 10.30L7.73 10.44C7.46 11.75 6.66 12.60 5.21 12.60C3.50 12.60 2.35 11.12 2.35 8.72C2.35 6.44 3.49 4.90 5.28 4.90C6.73 4.90 7.53 5.73 7.80 7.03L7.83 7.17L9.35 7.17L9.34 7.03C9.14 5.12 7.83 3.72 5.31 3.72ZM14.08 5.95C11.58 5.95 10.32 7.69 10.32 9.86C10.32 12.03 11.58 13.78 14.08 13.78C16.58 13.78 17.85 12.03 17.85 9.86C17.85 7.69 16.58 5.95 14.08 5.95ZM14.08 12.66C12.73 12.66 11.94 11.54 11.94 9.86C11.94 8.18 12.73 7.07 14.08 7.07C15.43 7.07 16.21 8.18 16.21 9.86C16.21 11.54 15.43 12.66 14.08 12.66ZM26.04 3.29L24.50 3.29L24.50 7.15L24.01 6.41C23.63 6.12 22.86 5.95 22.25 5.95C20.33 5.95 18.65 7.27 18.65 9.98C18.65 12.17 19.87 13.78 21.99 13.78C22.75 13.78 23.52 13.55 23.94 13.22L24.50 12.40L24.50 13.58L26.04 13.58ZM22.34 12.66C21.01 12.66 20.27 11.47 20.27 9.86C20.27 8.01 21.20 7.07 22.41 7.07C23.41 7.07 24.50 7.74 24.50 9.55L24.50 9.94C24.50 11.93 23.51 12.66 22.34 12.66ZM34.41 9.67C34.41 7.57 33.25 5.95 31.09 5.95C28.95 5.95 27.45 7.53 27.45 9.88C27.45 12.52 28.95 13.78 30.94 13.78C32.56 13.78 33.98 12.94 34.30 11.17L32.75 11.17C32.59 12.11 31.89 12.66 31.00 12.66C29.99 12.66 29.18 12.07 29.05 10.29L34.38 10.29C34.41 10.02 34.41 9.81 34.41 9.67ZM31.04 7.07C32.12 7.07 32.72 7.84 32.83 9.21L29.06 9.21C29.23 7.78 29.99 7.07 31.04 7.07ZM47.15 3.92L45.63 3.92L45.63 8.22L40.67 8.22L40.67 3.92L39.13 3.92L39.13 13.58L40.67 13.58L40.67 9.46L45.63 9.46L45.63 13.58L47.15 13.58ZM49.90 3.56C49.38 3.56 49.00 3.93 49.00 4.44C49.00 4.96 49.38 5.33 49.90 5.33C50.41 5.33 50.81 4.96 50.81 4.44C50.81 3.93 50.41 3.56 49.90 3.56ZM50.67 13.58L50.67 6.15L49.13 6.15L49.13 13.58ZM59.16 6.15L57.53 6.15L55.47 12.45L53.38 6.15L51.69 6.15L54.53 13.58L56.32 13.58ZM66.39 9.67C66.39 7.57 65.23 5.95 63.07 5.95C60.93 5.95 59.43 7.53 59.43 9.88C59.43 12.52 60.93 13.78 62.92 13.78C64.54 13.78 65.95 12.94 66.28 11.17L64.72 11.17C64.57 12.11 63.87 12.66 62.97 12.66C61.96 12.66 61.15 12.07 61.03 10.29L66.36 10.29C66.39 10.02 66.39 9.81 66.39 9.67ZM63.01 7.07C64.09 7.07 64.69 7.84 64.81 9.21L61.04 9.21C61.21 7.78 61.96 7.07 63.01 7.07Z"></path></g><!----><!----></svg>