<svg data-v-423bf9ae="" xmlns="http://www.w3.org/2000/svg" viewBox="0 0 230 100" class="iconLeft"><!----><!----><!----><g data-v-423bf9ae="" id="268037f5-d450-4f60-acb7-ad76cbd9fdc9" fill="white" transform="matrix(5.964215028353327,0,0,5.964215028353327,115.11388305583438,-2.5722829939738787)"><path d="M5.31 3.72C2.59 3.72 0.69 5.75 0.69 8.79C0.69 11.73 2.38 13.78 5.14 13.78C7.66 13.78 9.07 12.33 9.27 10.44L9.28 10.30L7.76 10.30L7.73 10.44C7.46 11.75 6.66 12.60 5.21 12.60C3.50 12.60 2.35 11.12 2.35 8.72C2.35 6.44 3.49 4.90 5.28 4.90C6.73 4.90 7.53 5.73 7.80 7.03L7.83 7.17L9.35 7.17L9.34 7.03C9.14 5.12 7.83 3.72 5.31 3.72ZM19.26 3.92L17.74 3.92L17.74 8.22L12.78 8.22L12.78 3.92L11.24 3.92L11.24 13.58L12.78 13.58L12.78 9.46L17.74 9.46L17.74 13.58L19.26 13.58Z"></path></g><!----><g data-v-423bf9ae="" id="cdcf0166-19ae-47e3-ba1c-1c0461ad9292" transform="matrix(1.050022210015191,0,0,1.050022210015191,-2.7521099037382513,-2.7521099037382513)" stroke="none" fill="white"><path d="M97.251 16.25c0-7.443-6.058-13.501-13.501-13.501-6.675 0-12.222 4.878-13.296 11.25H29.546c-1.074-6.372-6.621-11.25-13.296-11.25-7.443 0-13.501 6.058-13.501 13.501 0 6.675 4.878 12.222 11.25 13.296v40.908c-6.372 1.074-11.25 6.621-11.25 13.296 0 7.443 6.058 13.501 13.501 13.501 6.675 0 12.222-4.878 13.296-11.25h40.908c1.074 6.372 6.621 11.25 13.296 11.25 7.443 0 13.501-6.058 13.501-13.501 0-6.675-4.878-12.222-11.25-13.296V29.546c6.372-1.074 11.25-6.621 11.25-13.296zM83.75 92.749c-4.18 0-7.676-2.878-8.682-6.748-.186-.726-.317-1.47-.317-2.251s.132-1.525.317-2.251a8.998 8.998 0 0 1 .957-2.292c.389-.657.828-1.282 1.362-1.819.537-.534 1.162-.974 1.819-1.362a8.998 8.998 0 0 1 2.292-.957c.726-.186 1.47-.317 2.251-.317s1.525.132 2.251.317c3.87 1.006 6.748 4.502 6.748 8.682.001 4.96-4.037 8.998-8.998 8.998zM25.249 83.75c0 .781-.132 1.525-.317 2.251-1.006 3.87-4.502 6.748-8.682 6.748-4.961 0-8.999-4.038-8.999-8.999 0-4.18 2.878-7.676 6.748-8.682.726-.186 1.47-.317 2.251-.317s1.525.132 2.251.317a8.998 8.998 0 0 1 2.292.957c.657.389 1.282.828 1.819 1.362.534.537.974 1.162 1.362 1.819.42.71.742 1.477.957 2.292.186.727.318 1.471.318 2.252zM16.25 7.251c4.18 0 7.676 2.878 8.682 6.748.186.726.317 1.47.317 2.251s-.132 1.525-.317 2.251a8.998 8.998 0 0 1-.957 2.292c-.389.657-.828 1.282-1.362 1.819-.537.534-1.162.974-1.819 1.362-.71.42-1.477.742-2.292.957-.726.186-1.47.317-2.251.317s-1.525-.132-2.251-.317c-3.87-1.006-6.748-4.502-6.748-8.682-.001-4.96 4.037-8.998 8.998-8.998zm58.501 8.999c0-.781.132-1.525.317-2.251 1.006-3.87 4.502-6.748 8.682-6.748 4.961 0 8.999 4.038 8.999 8.999 0 4.18-2.878 7.676-6.748 8.682-.726.186-1.47.317-2.251.317s-1.525-.132-2.251-.317a8.998 8.998 0 0 1-2.292-.957c-.657-.389-1.282-.828-1.819-1.362-.534-.537-.974-1.162-1.362-1.819a8.998 8.998 0 0 1-.957-2.292c-.186-.727-.318-1.471-.318-2.252zM60.337 60.337a14.93 14.93 0 0 1-1.724 1.458c-2.42 1.77-5.391 2.829-8.613 2.829s-6.193-1.06-8.613-2.829c-.607-.447-1.191-.926-1.724-1.458s-1.011-1.116-1.458-1.724c-1.77-2.42-2.829-5.391-2.829-8.613s1.06-6.193 2.829-8.613c.447-.607.926-1.191 1.458-1.724s1.116-1.011 1.724-1.458c2.42-1.77 5.391-2.829 8.613-2.829s6.193 1.06 8.613 2.829c.607.447 1.191.926 1.724 1.458s1.011 1.116 1.458 1.724c1.77 2.42 2.829 5.391 2.829 8.613s-1.06 6.193-2.829 8.613a14.93 14.93 0 0 1-1.458 1.724zm12.422-36.276L61.821 34.995c-3.257-2.571-7.358-4.121-11.821-4.121s-8.564 1.55-11.821 4.121L27.241 24.061a13.415 13.415 0 0 0 2.305-5.56h40.908a13.415 13.415 0 0 0 2.305 5.56zm-54.258 5.485a13.401 13.401 0 0 0 5.56-2.305l10.935 10.938c-2.571 3.257-4.121 7.358-4.121 11.821s1.55 8.564 4.121 11.821L24.061 72.759a13.415 13.415 0 0 0-5.56-2.305V29.546zm8.74 46.393l10.938-10.935c3.257 2.571 7.358 4.121 11.821 4.121s8.564-1.55 11.821-4.121l10.938 10.935a13.415 13.415 0 0 0-2.305 5.56H29.546a13.415 13.415 0 0 0-2.305-5.56zm54.258-5.485a13.401 13.401 0 0 0-5.56 2.305L65.005 61.821c2.571-3.257 4.121-7.358 4.121-11.821s-1.55-8.564-4.121-11.821L75.94 27.241a13.415 13.415 0 0 0 5.56 2.305v40.908z"></path></g><!----></svg>