<svg data-v-423bf9ae="" xmlns="http://www.w3.org/2000/svg" viewBox="0 0 110.75547125638731 60" class="font"><!----><!----><!----><g data-v-423bf9ae="" id="95daf298-fe59-4bb8-a708-63c750508998" fill="white" transform="matrix(5.964215028353327,0,0,5.964215028353327,-4.115307770581637,-22.18688031453052)"><path d="M5.31 3.72C2.59 3.72 0.69 5.75 0.69 8.79C0.69 11.73 2.38 13.78 5.14 13.78C7.66 13.78 9.07 12.33 9.27 10.44L9.28 10.30L7.76 10.30L7.73 10.44C7.46 11.75 6.66 12.60 5.21 12.60C3.50 12.60 2.35 11.12 2.35 8.72C2.35 6.44 3.49 4.90 5.28 4.90C6.73 4.90 7.53 5.73 7.80 7.03L7.83 7.17L9.35 7.17L9.34 7.03C9.14 5.12 7.83 3.72 5.31 3.72ZM19.26 3.92L17.74 3.92L17.74 8.22L12.78 8.22L12.78 3.92L11.24 3.92L11.24 13.58L12.78 13.58L12.78 9.46L17.74 9.46L17.74 13.58L19.26 13.58Z"></path></g><!----><!----></svg>